<?xml version="1.0" encoding="utf-8"?>
<!-- Generator: Adobe Illustrator 21.0.0, SVG Export Plug-In . SVG Version: 6.00 Build 0)  -->
<svg version="1.1" id="Layer_1" xmlns="http://www.w3.org/2000/svg" xmlns:xlink="http://www.w3.org/1999/xlink" x="0px" y="0px"
	 viewBox="0 0 100 100" style="enable-background:new 0 0 100 100;" xml:space="preserve">
<style type="text/css">
	.st0{font-family:'TTChocolates-Regular';}
	.st1{font-size:10px;}
</style>
<g>
	<path d="M19.8,36.5h4.6c0.8,0,1.4,0.1,2,0.3c0.6,0.2,1.1,0.5,1.5,0.9s0.8,0.8,1,1.2c0.2,0.5,0.3,0.9,0.3,1.4c0,0.7-0.1,1.2-0.4,1.6
		c-0.3,0.4-0.6,0.7-0.9,1c-0.4,0.3-0.9,0.5-1.4,0.6v0.1c0.7,0.1,1.3,0.4,1.9,0.8c0.3,0.2,0.6,0.4,0.8,0.6c0.2,0.2,0.4,0.4,0.5,0.7
		s0.3,0.6,0.4,1c0.1,0.4,0.2,0.8,0.2,1.2c0,0.6-0.1,1.2-0.4,1.7c-0.3,0.6-0.6,1-1.1,1.5c-0.5,0.4-1.1,0.8-1.8,1s-1.5,0.4-2.3,0.4
		h-4.8V36.5z M24.3,43.1c0.5,0,1-0.1,1.4-0.2c0.4-0.1,0.7-0.3,1-0.6c0.3-0.2,0.5-0.5,0.6-0.8c0.1-0.3,0.2-0.6,0.2-1s-0.1-0.7-0.2-1
		c-0.1-0.3-0.4-0.6-0.6-0.8c-0.3-0.2-0.6-0.4-1-0.6c-0.4-0.1-0.9-0.2-1.4-0.2h-3v5H24.3z M24.6,51c0.6,0,1.2-0.1,1.7-0.3
		s0.9-0.4,1.2-0.7s0.6-0.6,0.8-1c0.2-0.4,0.3-0.8,0.3-1.3s-0.1-0.9-0.3-1.3c-0.2-0.4-0.4-0.7-0.8-1s-0.8-0.5-1.2-0.7
		s-1.1-0.3-1.7-0.3h-3.2V51H24.6z"/>
	<path d="M33.8,36.5h1.6v16.1h-1.6V36.5z"/>
	<path d="M47.1,36c1.1,0,2,0.2,2.8,0.6c0.8,0.4,1.5,0.8,2,1.2c0.6,0.5,1.2,1.1,1.6,1.8l-1.3,0.8c-0.4-0.5-0.8-1-1.3-1.4
		c-0.5-0.4-1-0.7-1.6-1c-0.6-0.3-1.3-0.4-2.1-0.4c-0.8,0-1.6,0.2-2.4,0.6c-0.8,0.4-1.5,0.9-2.1,1.5c-0.6,0.6-1.1,1.4-1.4,2.2
		s-0.5,1.8-0.5,2.7s0.2,1.9,0.5,2.7c0.4,0.8,0.8,1.6,1.4,2.2c0.6,0.6,1.3,1.1,2.1,1.5c0.8,0.4,1.6,0.6,2.4,0.6
		c0.9,0,1.7-0.2,2.4-0.5c0.7-0.3,1.2-0.7,1.6-1c0.5-0.4,0.9-0.9,1.3-1.5v-2.3h-4.2v-1.6H54V49c-0.4,0.8-1,1.4-1.7,2
		c-0.4,0.4-0.7,0.7-1,0.9c-0.3,0.2-0.7,0.4-1.1,0.6s-0.9,0.3-1.4,0.4S47.7,53,47.1,53C46,53,45,52.8,44,52.4c-1-0.4-1.9-1.1-2.6-1.8
		c-0.7-0.8-1.3-1.7-1.8-2.7c-0.4-1-0.7-2.1-0.7-3.3c0-1.2,0.2-2.3,0.7-3.3c0.4-1,1-1.9,1.8-2.7s1.6-1.4,2.6-1.8
		C45,36.2,46,36,47.1,36z"/>
	<path d="M68.2,52.6h-0.6l-4.1-6.7h-5v6.7H58V36.7h4.2c0.8,0,1.6,0.1,2.3,0.4c0.7,0.2,1.2,0.6,1.7,1c0.5,0.4,0.8,0.9,1.1,1.5
		c0.2,0.6,0.4,1.2,0.4,1.8c0,0.9-0.2,1.6-0.6,2.2s-0.8,1-1.2,1.3c-0.4,0.3-1,0.6-1.8,0.8v0.1L68.2,52.6z M62.2,45.4
		c0.8,0,1.5-0.1,2.1-0.3c0.6-0.2,1.1-0.5,1.5-0.9c0.4-0.4,0.7-0.8,1-1.3s0.3-1,0.3-1.6c0-0.6-0.1-1.1-0.3-1.6
		c-0.2-0.5-0.5-0.9-1-1.3c-0.4-0.4-0.9-0.7-1.5-0.9s-1.3-0.3-2.1-0.3h-3.7v8.2H62.2z"/>
	<path d="M72.1,36.7h0.5v15.8h-0.5V36.7z"/>
	<path d="M81.4,36.2c0.7,0,1.3,0.1,1.8,0.4c0.5,0.2,1,0.5,1.3,0.8c0.4,0.4,0.8,0.8,1.1,1.2l-0.4,0.2c-0.3-0.4-0.6-0.8-1-1.1
		c-0.3-0.3-0.7-0.5-1.2-0.8c-0.5-0.2-1-0.3-1.7-0.3c-0.6,0-1.1,0.1-1.6,0.3c-0.5,0.2-0.9,0.4-1.2,0.7s-0.6,0.7-0.8,1.1
		s-0.3,0.9-0.3,1.4c0,0.8,0.2,1.4,0.6,1.8c0.4,0.5,1,0.9,1.6,1.2c0.6,0.3,1.3,0.6,2.1,0.9s1.4,0.6,2.1,0.9s1.2,0.8,1.6,1.3
		c0.4,0.5,0.6,1.2,0.6,2.1c0,0.6-0.1,1.2-0.4,1.7c-0.3,0.6-0.6,1-1.1,1.5c-0.4,0.4-1,0.8-1.6,1c-0.6,0.2-1.3,0.4-2,0.4
		c-0.9,0-1.7-0.2-2.3-0.5c-0.6-0.3-1.1-0.7-1.5-1.1c-0.5-0.5-0.9-1-1.2-1.6l0.4-0.2c0.3,0.5,0.6,1,1.1,1.4c0.4,0.4,0.9,0.7,1.5,1
		s1.3,0.4,2.1,0.4c0.7,0,1.3-0.1,1.8-0.3c0.6-0.2,1-0.5,1.5-0.9c0.4-0.4,0.7-0.8,0.9-1.3c0.2-0.5,0.3-1,0.3-1.5
		c0-0.8-0.2-1.4-0.6-1.9c-0.4-0.5-1-0.9-1.6-1.2c-0.6-0.3-1.3-0.6-2.1-0.9c-0.8-0.3-1.4-0.6-2.1-0.9c-0.6-0.4-1.2-0.8-1.6-1.3
		s-0.6-1.2-0.6-2c0-0.5,0.1-1.1,0.3-1.5s0.5-0.9,0.9-1.3c0.4-0.4,0.8-0.6,1.4-0.9C80.2,36.4,80.8,36.2,81.4,36.2z"/>
	<path d="M90.1,36.7H98v0.5h-7.4v7h5.5v0.5h-5.5v7.4h7.7v0.5h-8.2V36.7z"/>
</g>
<text transform="matrix(1 0 0 1 8.1379 43.1078)" class="st0 st1">BY</text>
</svg>
